<svg width="24" height="24" viewBox="0 0 24 24" fill="none" xmlns="http://www.w3.org/2000/svg">
<mask id="path-1-inside-1_60_20393" fill="white">
<path d="M10.001 5.25C10.0009 5.62291 10.1051 5.98842 10.3018 6.30525C10.4984 6.62208 10.7798 6.87761 11.114 7.043L11.36 7.1325C11.7744 7.28337 12.2286 7.28337 12.643 7.1325L12.8885 7.043C13.2079 6.88482 13.4793 6.64415 13.6745 6.34589C13.8697 6.04762 13.9816 5.70261 13.9987 5.34657C14.0158 4.99052 13.9374 4.63638 13.7717 4.3208C13.6059 4.00521 13.3589 3.73966 13.056 3.55162C12.7532 3.36358 12.4056 3.25989 12.0493 3.25128C11.6929 3.24267 11.3408 3.32946 11.0292 3.50266C10.7177 3.67586 10.4581 3.92917 10.2773 4.23639C10.0965 4.5436 10.0011 4.89354 10.001 5.25ZM8.904 6.2385C8.74839 5.75113 8.71004 5.23391 8.79207 4.72893C8.87409 4.22394 9.07418 3.74545 9.37604 3.33239C9.67791 2.91933 10.073 2.58337 10.5292 2.35185C10.9855 2.12032 11.4899 1.99977 12.0015 2C12.5131 1.99985 13.0174 2.12046 13.4736 2.35202C13.9297 2.58358 14.3248 2.91955 14.6266 3.33259C14.9284 3.74564 15.1285 4.2241 15.2105 4.72905C15.2925 5.234 15.2541 5.75117 15.0985 6.2385L18.1485 5.1285C18.6781 4.93569 19.2627 4.96117 19.7735 5.19934C20.2844 5.43751 20.6797 5.86886 20.8725 6.3985C21.0653 6.92814 21.0398 7.51268 20.8017 8.02353C20.5635 8.53437 20.1321 8.92969 19.6025 9.1225L15.502 10.615V13.013C15.502 13.1895 15.5355 13.3645 15.602 13.528L17.845 19.08C17.9496 19.3388 18.0021 19.6156 17.9997 19.8947C17.9973 20.1738 17.9399 20.4497 17.8309 20.7066C17.7218 20.9635 17.5633 21.1964 17.3642 21.392C17.1652 21.5877 16.9295 21.7422 16.6707 21.8468C16.412 21.9513 16.1351 22.0039 15.8561 22.0015C15.577 21.999 15.3011 21.9417 15.0442 21.8326C14.7873 21.7236 14.5543 21.565 14.3587 21.366C14.1631 21.1669 14.0086 20.9313 13.904 20.6725L12.0005 15.9615L10.097 20.672C9.88589 21.1946 9.47582 21.6119 8.957 21.8322C8.43818 22.0525 7.85311 22.0576 7.3305 21.8465C6.80789 21.6354 6.39055 21.2253 6.17029 20.7065C5.95003 20.1877 5.94489 19.6026 6.156 19.08L8.401 13.524C8.467 13.3605 8.501 13.1855 8.501 13.009V10.615L4.4 9.1225C4.13515 9.02908 3.89144 8.88409 3.68297 8.69591C3.4745 8.50774 3.3054 8.2801 3.18544 8.02616C3.06548 7.77223 2.99705 7.49704 2.9841 7.21649C2.97115 6.93595 3.01394 6.65562 3.10999 6.39172C3.20604 6.12781 3.35346 5.88556 3.54371 5.67898C3.73395 5.47239 3.96327 5.30557 4.21838 5.18815C4.4735 5.07073 4.74936 5.00505 5.03002 4.99489C5.31068 4.98474 5.59057 5.03032 5.8535 5.129L8.9035 6.239L8.904 6.2385ZM10.626 8.1955L5.4265 6.3035C5.31852 6.2642 5.20386 6.24656 5.08906 6.25157C4.97426 6.25659 4.86157 6.28417 4.75743 6.33273C4.54711 6.43081 4.38437 6.60843 4.305 6.8265C4.22563 7.04457 4.23615 7.28525 4.33423 7.49557C4.43231 7.70589 4.60993 7.86863 4.828 7.948L9.0105 9.47C9.22748 9.54891 9.41492 9.69267 9.54739 9.88176C9.67986 10.0709 9.75095 10.2961 9.751 10.527V13.009C9.751 13.346 9.686 13.68 9.56 13.9925L7.315 19.5485C7.2706 19.6553 7.2478 19.7698 7.24793 19.8855C7.24807 20.0011 7.27113 20.1156 7.31578 20.2223C7.36043 20.329 7.42579 20.4257 7.50807 20.507C7.59036 20.5883 7.68794 20.6524 7.79517 20.6957C7.9024 20.7391 8.01715 20.7607 8.1328 20.7594C8.24844 20.7581 8.36268 20.7339 8.46891 20.6882C8.57513 20.6424 8.67124 20.5761 8.75167 20.493C8.83211 20.4099 8.89527 20.3117 8.9375 20.204L10.9575 15.2065C11.3365 14.268 12.6645 14.268 13.0435 15.2065L15.0635 20.204C15.152 20.4169 15.321 20.5862 15.5336 20.6752C15.7463 20.7642 15.9855 20.7657 16.1992 20.6793C16.4129 20.593 16.584 20.4258 16.6751 20.214C16.7663 20.0023 16.7702 19.7631 16.686 19.5485L14.4425 13.996C14.3163 13.6836 14.2515 13.3499 14.2515 13.013V10.527C14.2515 10.0545 14.5475 9.632 14.992 9.47L19.1745 7.948C19.3926 7.86863 19.5703 7.70586 19.6684 7.49549C19.7666 7.28512 19.7771 7.04439 19.6978 6.82625C19.6184 6.60811 19.4556 6.43043 19.2452 6.3323C19.0349 6.23418 18.7941 6.22363 18.576 6.303L13.377 8.1955C12.9464 8.39671 12.4768 8.50067 12.0015 8.5C11.5262 8.50067 11.0566 8.39671 10.626 8.1955Z"/>
</mask>
<path d="M10.001 5.25C10.0009 5.62291 10.1051 5.98842 10.3018 6.30525C10.4984 6.62208 10.7798 6.87761 11.114 7.043L11.36 7.1325C11.7744 7.28337 12.2286 7.28337 12.643 7.1325L12.8885 7.043C13.2079 6.88482 13.4793 6.64415 13.6745 6.34589C13.8697 6.04762 13.9816 5.70261 13.9987 5.34657C14.0158 4.99052 13.9374 4.63638 13.7717 4.3208C13.6059 4.00521 13.3589 3.73966 13.056 3.55162C12.7532 3.36358 12.4056 3.25989 12.0493 3.25128C11.6929 3.24267 11.3408 3.32946 11.0292 3.50266C10.7177 3.67586 10.4581 3.92917 10.2773 4.23639C10.0965 4.5436 10.0011 4.89354 10.001 5.25ZM8.904 6.2385C8.74839 5.75113 8.71004 5.23391 8.79207 4.72893C8.87409 4.22394 9.07418 3.74545 9.37604 3.33239C9.67791 2.91933 10.073 2.58337 10.5292 2.35185C10.9855 2.12032 11.4899 1.99977 12.0015 2C12.5131 1.99985 13.0174 2.12046 13.4736 2.35202C13.9297 2.58358 14.3248 2.91955 14.6266 3.33259C14.9284 3.74564 15.1285 4.2241 15.2105 4.72905C15.2925 5.234 15.2541 5.75117 15.0985 6.2385L18.1485 5.1285C18.6781 4.93569 19.2627 4.96117 19.7735 5.19934C20.2844 5.43751 20.6797 5.86886 20.8725 6.3985C21.0653 6.92814 21.0398 7.51268 20.8017 8.02353C20.5635 8.53437 20.1321 8.92969 19.6025 9.1225L15.502 10.615V13.013C15.502 13.1895 15.5355 13.3645 15.602 13.528L17.845 19.08C17.9496 19.3388 18.0021 19.6156 17.9997 19.8947C17.9973 20.1738 17.9399 20.4497 17.8309 20.7066C17.7218 20.9635 17.5633 21.1964 17.3642 21.392C17.1652 21.5877 16.9295 21.7422 16.6707 21.8468C16.412 21.9513 16.1351 22.0039 15.8561 22.0015C15.577 21.999 15.3011 21.9417 15.0442 21.8326C14.7873 21.7236 14.5543 21.565 14.3587 21.366C14.1631 21.1669 14.0086 20.9313 13.904 20.6725L12.0005 15.9615L10.097 20.672C9.88589 21.1946 9.47582 21.6119 8.957 21.8322C8.43818 22.0525 7.85311 22.0576 7.3305 21.8465C6.80789 21.6354 6.39055 21.2253 6.17029 20.7065C5.95003 20.1877 5.94489 19.6026 6.156 19.08L8.401 13.524C8.467 13.3605 8.501 13.1855 8.501 13.009V10.615L4.4 9.1225C4.13515 9.02908 3.89144 8.88409 3.68297 8.69591C3.4745 8.50774 3.3054 8.2801 3.18544 8.02616C3.06548 7.77223 2.99705 7.49704 2.9841 7.21649C2.97115 6.93595 3.01394 6.65562 3.10999 6.39172C3.20604 6.12781 3.35346 5.88556 3.54371 5.67898C3.73395 5.47239 3.96327 5.30557 4.21838 5.18815C4.4735 5.07073 4.74936 5.00505 5.03002 4.99489C5.31068 4.98474 5.59057 5.03032 5.8535 5.129L8.9035 6.239L8.904 6.2385ZM10.626 8.1955L5.4265 6.3035C5.31852 6.2642 5.20386 6.24656 5.08906 6.25157C4.97426 6.25659 4.86157 6.28417 4.75743 6.33273C4.54711 6.43081 4.38437 6.60843 4.305 6.8265C4.22563 7.04457 4.23615 7.28525 4.33423 7.49557C4.43231 7.70589 4.60993 7.86863 4.828 7.948L9.0105 9.47C9.22748 9.54891 9.41492 9.69267 9.54739 9.88176C9.67986 10.0709 9.75095 10.2961 9.751 10.527V13.009C9.751 13.346 9.686 13.68 9.56 13.9925L7.315 19.5485C7.2706 19.6553 7.2478 19.7698 7.24793 19.8855C7.24807 20.0011 7.27113 20.1156 7.31578 20.2223C7.36043 20.329 7.42579 20.4257 7.50807 20.507C7.59036 20.5883 7.68794 20.6524 7.79517 20.6957C7.9024 20.7391 8.01715 20.7607 8.1328 20.7594C8.24844 20.7581 8.36268 20.7339 8.46891 20.6882C8.57513 20.6424 8.67124 20.5761 8.75167 20.493C8.83211 20.4099 8.89527 20.3117 8.9375 20.204L10.9575 15.2065C11.3365 14.268 12.6645 14.268 13.0435 15.2065L15.0635 20.204C15.152 20.4169 15.321 20.5862 15.5336 20.6752C15.7463 20.7642 15.9855 20.7657 16.1992 20.6793C16.4129 20.593 16.584 20.4258 16.6751 20.214C16.7663 20.0023 16.7702 19.7631 16.686 19.5485L14.4425 13.996C14.3163 13.6836 14.2515 13.3499 14.2515 13.013V10.527C14.2515 10.0545 14.5475 9.632 14.992 9.47L19.1745 7.948C19.3926 7.86863 19.5703 7.70586 19.6684 7.49549C19.7666 7.28512 19.7771 7.04439 19.6978 6.82625C19.6184 6.60811 19.4556 6.43043 19.2452 6.3323C19.0349 6.23418 18.7941 6.22363 18.576 6.303L13.377 8.1955C12.9464 8.39671 12.4768 8.50067 12.0015 8.5C11.5262 8.50067 11.0566 8.39671 10.626 8.1955Z" fill="#53B8BB"/>
<path d="M10.001 5.25L8.001 5.2493V5.24955L10.001 5.25ZM11.114 7.043L10.227 8.83555L10.3262 8.88463L10.4302 8.92248L11.114 7.043ZM11.36 7.1325L12.0443 5.2532L12.0438 5.25303L11.36 7.1325ZM12.643 7.1325L13.3273 9.0118L13.328 9.01153L12.643 7.1325ZM12.8885 7.043L13.5735 8.92203L13.6772 8.88425L13.776 8.8353L12.8885 7.043ZM8.904 6.2385L10.3169 7.65406L11.1803 6.79229L10.8092 5.63019L8.904 6.2385ZM12.0015 2L12.0006 4L12.0021 4L12.0015 2ZM15.0985 6.2385L13.1933 5.63019L11.9541 9.51118L15.7825 8.11791L15.0985 6.2385ZM18.1485 5.1285L18.8325 7.00791L18.8327 7.00784L18.1485 5.1285ZM19.6025 9.1225L20.2866 11.0019L20.2867 11.0018L19.6025 9.1225ZM15.502 10.615L14.8179 8.73562L13.502 9.2146V10.615H15.502ZM15.602 13.528L17.4564 12.7788L17.4546 12.7745L15.602 13.528ZM17.845 19.08L15.9906 19.8292L15.9907 19.8293L17.845 19.08ZM13.904 20.6725L12.0497 21.4218L12.0497 21.4218L13.904 20.6725ZM12.0005 15.9615L13.8548 15.2122L12.0006 10.6231L10.1462 15.2122L12.0005 15.9615ZM10.097 20.672L8.24268 19.9227L8.24259 19.9229L10.097 20.672ZM6.156 19.08L4.30166 18.3307L4.30159 18.3309L6.156 19.08ZM8.401 13.524L10.2553 14.2733L10.2556 14.2726L8.401 13.524ZM8.501 10.615H10.501V9.21454L9.18498 8.73559L8.501 10.615ZM4.4 9.1225L5.08398 7.24309L5.07464 7.23969L5.06526 7.23639L4.4 9.1225ZM5.8535 5.129L5.15076 7.00147L5.16012 7.00499L5.16952 7.00841L5.8535 5.129ZM8.9035 6.239L8.21952 8.11841L9.41553 8.55368L10.3164 7.65456L8.9035 6.239ZM10.626 8.1955L11.4727 6.38355L11.3928 6.34622L11.3099 6.31606L10.626 8.1955ZM5.4265 6.3035L4.74251 8.1829L4.74261 8.18294L5.4265 6.3035ZM4.75743 6.33273L5.60272 8.14532L4.75743 6.33273ZM4.828 7.948L4.14401 9.8274L4.14408 9.82743L4.828 7.948ZM9.0105 9.47L8.32658 11.3494L8.32694 11.3496L9.0105 9.47ZM9.751 10.527H11.751V10.5266L9.751 10.527ZM9.56 13.9925L11.4143 14.7418L11.4149 14.7404L9.56 13.9925ZM7.315 19.5485L9.16171 20.3164L9.16557 20.3071L9.16934 20.2978L7.315 19.5485ZM8.9375 20.204L7.08325 19.4545L7.07939 19.464L7.07563 19.4736L8.9375 20.204ZM10.9575 15.2065L12.8118 15.956L12.812 15.9554L10.9575 15.2065ZM13.0435 15.2065L11.189 15.9554L11.1892 15.956L13.0435 15.2065ZM15.0635 20.204L13.2092 20.9535L13.213 20.9627L13.2168 20.9719L15.0635 20.204ZM16.686 19.5485L18.5479 18.8181L18.5442 18.8087L18.5404 18.7992L16.686 19.5485ZM14.4425 13.996L12.588 14.7449L12.5881 14.7453L14.4425 13.996ZM14.2515 13.013L16.2515 13.013V13.013H14.2515ZM14.992 9.47L14.3081 7.59057L14.3072 7.59091L14.992 9.47ZM19.1745 7.948L18.4907 6.06853L18.4906 6.06857L19.1745 7.948ZM18.576 6.303L17.8922 4.42353L17.8919 4.42364L18.576 6.303ZM13.377 8.1955L12.6929 6.31614L12.6101 6.34627L12.5303 6.38355L13.377 8.1955ZM12.0015 8.5L12.0043 6.49999L11.9987 6.5L12.0015 8.5ZM8.001 5.24955C8.00083 5.99537 8.20918 6.72638 8.60253 7.36004L12.001 5.25045L12.001 5.25045L8.001 5.24955ZM8.60253 7.36004C8.99587 7.99371 9.55854 8.50478 10.227 8.83555L12.001 5.25045L12.001 5.25045L8.60253 7.36004ZM10.4302 8.92248L10.6762 9.01198L12.0438 5.25303L11.7978 5.16353L10.4302 8.92248ZM10.6757 9.0118C11.5321 9.3236 12.4709 9.3236 13.3273 9.0118L11.9587 5.2532C11.9864 5.24314 12.0166 5.24314 12.0443 5.2532L10.6757 9.0118ZM13.328 9.01153L13.5735 8.92203L12.2035 5.16397L11.958 5.25347L13.328 9.01153ZM13.776 8.8353C14.4149 8.51895 14.9576 8.0376 15.348 7.44107L12.001 5.2507L13.776 8.8353ZM15.348 7.44107C15.7384 6.84455 15.9622 6.15453 15.9964 5.44243L12.001 5.2507V5.2507L15.348 7.44107ZM15.9964 5.44243C16.0306 4.73034 15.8738 4.02206 15.5423 3.39089L12.001 5.2507H12.001L15.9964 5.44243ZM15.5423 3.39089C15.2109 2.75973 14.7167 2.22862 14.1111 1.85254L12.001 5.2507L15.5423 3.39089ZM14.1111 1.85254C13.5054 1.47646 12.8103 1.26908 12.0976 1.25187L12.001 5.2507V5.2507L14.1111 1.85254ZM12.0976 1.25187C11.3849 1.23465 10.6805 1.40822 10.0574 1.75462L12.001 5.2507V5.2507L12.0976 1.25187ZM10.0574 1.75462C9.43434 2.10102 8.91514 2.60765 8.55358 3.22207L12.001 5.2507V5.2507L10.0574 1.75462ZM8.55358 3.22207C8.19202 3.8365 8.00125 4.53639 8.001 5.2493L12.001 5.2507H12.001L8.55358 3.22207ZM10.8092 5.63019C10.7494 5.44274 10.7346 5.24381 10.7662 5.04959L6.81794 4.40827C6.68544 5.22402 6.74739 6.05952 6.99875 6.84681L10.8092 5.63019ZM10.7662 5.04959C10.7977 4.85536 10.8747 4.67133 10.9908 4.51246L7.76129 2.15233C7.27366 2.81957 6.95044 3.59252 6.81794 4.40827L10.7662 5.04959ZM10.9908 4.51246C11.1069 4.35359 11.2589 4.22437 11.4343 4.13533L9.62414 0.568366C8.88717 0.942371 8.24891 1.48508 7.76129 2.15233L10.9908 4.51246ZM11.4343 4.13533C11.6098 4.04628 11.8038 3.99991 12.0006 4L12.0024 5.96046e-07C11.176 -0.000374794 10.3611 0.194362 9.62414 0.568366L11.4343 4.13533ZM12.0021 4C12.1989 3.99994 12.3928 4.04633 12.5683 4.13539L14.3789 0.56864C13.642 0.194582 12.8273 -0.000247717 12.0009 4.76837e-07L12.0021 4ZM12.5683 4.13539C12.7437 4.22445 12.8957 4.35367 13.0118 4.51254L16.2415 2.15265C15.7539 1.48542 15.1158 0.942699 14.3789 0.56864L12.5683 4.13539ZM13.0118 4.51254C13.1278 4.6714 13.2048 4.85543 13.2363 5.04963L17.1846 4.40847C17.0521 3.59278 16.729 2.81988 16.2415 2.15265L13.0118 4.51254ZM13.2363 5.04963C13.2679 5.24385 13.2531 5.44276 13.1933 5.63019L17.0037 6.84681C17.2551 6.05959 17.3171 5.22415 17.1846 4.40847L13.2363 5.04963ZM15.7825 8.11791L18.8325 7.00791L17.4645 3.24909L14.4145 4.35909L15.7825 8.11791ZM18.8327 7.00784C18.8639 6.99648 18.8983 6.99798 18.9284 7.01201L20.6186 3.38667C19.627 2.92436 18.4924 2.8749 17.4643 3.24916L18.8327 7.00784ZM18.9284 7.01201C18.9585 7.02605 18.9818 7.05146 18.9932 7.08267L22.7518 5.71433C22.3776 4.68627 21.6102 3.84898 20.6186 3.38667L18.9284 7.01201ZM18.9932 7.08267C19.0045 7.11387 19.003 7.14831 18.989 7.17841L22.6143 8.86864C23.0766 7.87704 23.1261 6.7424 22.7518 5.71433L18.9932 7.08267ZM18.989 7.17841C18.975 7.20851 18.9495 7.2318 18.9183 7.24316L20.2867 11.0018C21.3147 10.6276 22.152 9.86024 22.6143 8.86864L18.989 7.17841ZM18.9184 7.24312L14.8179 8.73562L16.1861 12.4944L20.2866 11.0019L18.9184 7.24312ZM13.502 10.615V13.013H17.502V10.615H13.502ZM13.502 13.013C13.502 13.4423 13.5835 13.8736 13.7494 14.2815L17.4546 12.7745C17.4875 12.8554 17.502 12.9367 17.502 13.013H13.502ZM13.7476 14.2772L15.9906 19.8292L19.6994 18.3308L17.4564 12.7788L13.7476 14.2772ZM15.9907 19.8293C15.9968 19.8446 15.9999 19.8609 15.9998 19.8773L19.9996 19.912C20.0043 19.3703 19.9023 18.833 19.6993 18.3307L15.9907 19.8293ZM15.9998 19.8773C15.9996 19.8938 15.9963 19.9101 15.9898 19.9252L19.6719 21.4879C19.8836 20.9893 19.9949 20.4538 19.9996 19.912L15.9998 19.8773ZM15.9898 19.9252C15.9834 19.9403 15.9741 19.9541 15.9623 19.9656L18.7661 22.8185C19.1525 22.4387 19.4603 21.9866 19.6719 21.4879L15.9898 19.9252ZM15.9623 19.9656C15.9506 19.9771 15.9367 19.9863 15.9214 19.9924L17.4201 23.7011C17.9223 23.4981 18.3797 23.1982 18.7661 22.8185L15.9623 19.9656ZM15.9214 19.9924C15.9062 19.9986 15.8899 20.0017 15.8734 20.0015L15.8387 24.0014C16.3804 24.0061 16.9178 23.904 17.4201 23.7011L15.9214 19.9924ZM15.8734 20.0015C15.857 20.0014 15.8407 19.998 15.8255 19.9916L14.2628 23.6737C14.7615 23.8853 15.297 23.9967 15.8387 24.0014L15.8734 20.0015ZM15.8255 19.9916C15.8104 19.9852 15.7967 19.9758 15.7851 19.9641L12.9323 22.7679C13.312 23.1542 13.7641 23.462 14.2628 23.6737L15.8255 19.9916ZM15.7851 19.9641C15.7736 19.9523 15.7645 19.9384 15.7583 19.9232L12.0497 21.4218C12.2526 21.9241 12.5525 22.3815 12.9323 22.7679L15.7851 19.9641ZM15.7583 19.9232L13.8548 15.2122L10.1462 16.7108L12.0497 21.4218L15.7583 19.9232ZM10.1462 15.2122L8.24268 19.9227L11.9513 21.4213L13.8548 16.7108L10.1462 15.2122ZM8.24259 19.9229C8.23015 19.9537 8.206 19.9783 8.17543 19.9912L9.73857 23.6732C10.7456 23.2456 11.5416 22.4355 11.9514 21.4211L8.24259 19.9229ZM8.17543 19.9912C8.14486 20.0042 8.11039 20.0045 8.07961 19.9921L6.5814 23.7009C7.59583 24.1107 8.73149 24.1007 9.73857 23.6732L8.17543 19.9912ZM8.07961 19.9921C8.04882 19.9797 8.02423 19.9555 8.01125 19.9249L4.32933 21.4881C4.75687 22.4951 5.56697 23.2911 6.5814 23.7009L8.07961 19.9921ZM8.01125 19.9249C7.99828 19.8944 7.99797 19.8599 8.01041 19.8291L4.30159 18.3309C3.8918 19.3453 3.90178 20.481 4.32933 21.4881L8.01125 19.9249ZM8.01034 19.8293L10.2553 14.2733L6.54666 12.7747L4.30166 18.3307L8.01034 19.8293ZM10.2556 14.2726C10.4177 13.8712 10.501 13.442 10.501 13.009H6.501C6.501 12.929 6.51635 12.8498 6.5464 12.7754L10.2556 14.2726ZM10.501 13.009V10.615H6.501V13.009H10.501ZM9.18498 8.73559L5.08398 7.24309L3.71602 11.0019L7.81702 12.4944L9.18498 8.73559ZM5.06526 7.23639C5.04968 7.23089 5.03535 7.22236 5.02308 7.21129L2.34286 10.1805C2.74754 10.5458 3.22062 10.8273 3.73474 11.0086L5.06526 7.23639ZM5.02308 7.21129C5.01082 7.20022 5.00087 7.18683 4.99382 7.1719L1.37706 8.88043C1.60992 9.37336 1.93818 9.81525 2.34286 10.1805L5.02308 7.21129ZM4.99382 7.1719C4.98676 7.15696 4.98274 7.14077 4.98197 7.12427L0.986229 7.30872C1.01137 7.8533 1.14421 8.3875 1.37706 8.88043L4.99382 7.1719ZM4.98197 7.12427C4.98121 7.10777 4.98373 7.09128 4.98938 7.07575L1.2306 5.70768C1.04415 6.21997 0.96109 6.76414 0.986229 7.30872L4.98197 7.12427ZM4.98938 7.07575C4.99503 7.06023 5.0037 7.04598 5.01489 7.03383L2.07252 4.32413C1.70321 4.72515 1.41706 5.1954 1.2306 5.70768L4.98938 7.07575ZM5.01489 7.03383C5.02608 7.02167 5.03957 7.01186 5.05458 7.00495L3.38219 3.37135C2.88696 3.59928 2.44182 3.92311 2.07252 4.32413L5.01489 7.03383ZM5.05458 7.00495C5.06959 6.99805 5.08581 6.99418 5.10232 6.99359L4.95772 2.9962C4.41291 3.01591 3.87741 3.14341 3.38219 3.37135L5.05458 7.00495ZM5.10232 6.99359C5.11883 6.99299 5.13529 6.99567 5.15076 7.00147L6.55624 3.25653C6.04584 3.06497 5.50253 2.97649 4.95772 2.9962L5.10232 6.99359ZM5.16952 7.00841L8.21952 8.11841L9.58748 4.35959L6.53748 3.24959L5.16952 7.00841ZM10.3164 7.65456L10.3169 7.65406L7.49114 4.82294L7.49063 4.82344L10.3164 7.65456ZM11.3099 6.31606L6.11039 4.42406L4.74261 8.18294L9.94211 10.0749L11.3099 6.31606ZM6.11049 4.4241C5.75571 4.29498 5.37896 4.237 5.00177 4.25348L5.17635 8.24967C5.02876 8.25611 4.88134 8.23343 4.74251 8.1829L6.11049 4.4241ZM5.00177 4.25348C4.62458 4.26996 4.25432 4.36057 3.91215 4.52014L5.60272 8.14532C5.46882 8.20776 5.32395 8.24322 5.17635 8.24967L5.00177 4.25348ZM3.91215 4.52014C3.2211 4.8424 2.68637 5.42599 2.4256 6.14251L6.1844 7.51049C6.08236 7.79087 5.87312 8.01922 5.60272 8.14532L3.91215 4.52014ZM2.4256 6.14251C2.16482 6.85904 2.19937 7.6498 2.52164 8.34085L6.14682 6.65028C6.27292 6.92069 6.28644 7.23011 6.1844 7.51049L2.4256 6.14251ZM2.52164 8.34085C2.8439 9.0319 3.42749 9.56663 4.14401 9.8274L5.51199 6.0686C5.79237 6.17064 6.02072 6.37988 6.14682 6.65028L2.52164 8.34085ZM4.14408 9.82743L8.32658 11.3494L9.69442 7.59057L5.51192 6.06857L4.14408 9.82743ZM8.32694 11.3496C8.15819 11.2882 8.0124 11.1764 7.90936 11.0293L11.1854 8.73421C10.8174 8.20895 10.2968 7.80963 9.69406 7.59044L8.32694 11.3496ZM7.90936 11.0293C7.80633 10.8822 7.75104 10.707 7.751 10.5275L11.751 10.5266C11.7509 9.88522 11.5534 9.25946 11.1854 8.73421L7.90936 11.0293ZM7.751 10.527V13.009H11.751V10.527H7.751ZM7.751 13.009C7.751 13.0889 7.73555 13.1691 7.7051 13.2446L11.4149 14.7404C11.6365 14.1909 11.751 13.6031 11.751 13.009H7.751ZM7.70566 13.2432L5.46066 18.7992L9.16934 20.2978L11.4143 14.7418L7.70566 13.2432ZM5.46829 18.7806C5.32239 19.1315 5.2475 19.5078 5.24794 19.8878L9.24793 19.8832C9.24811 20.0319 9.2188 20.1791 9.16171 20.3164L5.46829 18.7806ZM5.24794 19.8878C5.24837 20.2678 5.32414 20.6439 5.47085 20.9945L9.16071 19.4501C9.21811 19.5873 9.24776 19.7345 9.24793 19.8832L5.24794 19.8878ZM5.47085 20.9945C5.61756 21.345 5.83231 21.663 6.10267 21.93L8.91347 19.084C9.01927 19.1885 9.1033 19.3129 9.16071 19.4501L5.47085 20.9945ZM6.10267 21.93C6.37304 22.197 6.69366 22.4078 7.04599 22.5501L8.54435 18.8414C8.68221 18.8971 8.80767 18.9795 8.91347 19.084L6.10267 21.93ZM7.04599 22.5501C7.39831 22.6925 7.77536 22.7636 8.15534 22.7593L8.11025 18.7595C8.25895 18.7579 8.40649 18.7857 8.54435 18.8414L7.04599 22.5501ZM8.15534 22.7593C8.53533 22.755 8.91068 22.6754 9.2597 22.5252L7.67811 18.8511C7.81468 18.7923 7.96156 18.7612 8.11025 18.7595L8.15534 22.7593ZM9.2597 22.5252C9.60873 22.3749 9.92451 22.157 10.1888 21.8839L7.31455 19.1021C7.41797 18.9952 7.54154 18.9099 7.67811 18.8511L9.2597 22.5252ZM10.1888 21.8839C10.4531 21.6109 10.6606 21.2881 10.7994 20.9344L7.07563 19.4736C7.12993 19.3352 7.21114 19.2089 7.31455 19.1021L10.1888 21.8839ZM10.7918 20.9535L12.8118 15.956L9.10325 14.457L7.08325 19.4545L10.7918 20.9535ZM12.812 15.9554C12.5173 16.685 11.4837 16.685 11.189 15.9554L14.898 14.4576C13.8453 11.851 10.1557 11.851 9.10301 14.4576L12.812 15.9554ZM11.1892 15.956L13.2092 20.9535L16.9178 19.4545L14.8978 14.457L11.1892 15.956ZM13.2168 20.9719C13.5076 21.6713 14.0627 22.2277 14.7614 22.5201L16.3058 18.8303C16.5792 18.9447 16.7964 19.1624 16.9102 19.4361L13.2168 20.9719ZM14.7614 22.5201C15.4602 22.8126 16.2461 22.8174 16.9484 22.5337L15.45 18.825C15.7248 18.7139 16.0324 18.7158 16.3058 18.8303L14.7614 22.5201ZM16.9484 22.5337C17.6507 22.25 18.2126 21.7006 18.5121 21.0048L14.8381 19.4232C14.9553 19.151 15.1752 18.936 15.45 18.825L16.9484 22.5337ZM18.5121 21.0048C18.8116 20.3091 18.8245 19.5233 18.5479 18.8181L14.8241 20.2789C14.7159 20.0029 14.7209 19.6955 14.8381 19.4232L18.5121 21.0048ZM18.5404 18.7992L16.2969 13.2467L12.5881 14.7453L14.8316 20.2978L18.5404 18.7992ZM16.297 13.2471C16.2669 13.1727 16.2515 13.0932 16.2515 13.013L12.2515 13.013C12.2515 13.6066 12.3658 14.1946 12.588 14.7449L16.297 13.2471ZM16.2515 13.013V10.527H12.2515V13.013H16.2515ZM16.2515 10.527C16.2515 10.8965 16.0206 11.2238 15.6768 11.3491L14.3072 7.59091C13.0744 8.0402 12.2515 9.21252 12.2515 10.527H16.2515ZM15.6759 11.3494L19.8584 9.82743L18.4906 6.06857L14.3081 7.59057L15.6759 11.3494ZM19.8583 9.82747C20.5749 9.56675 21.1586 9.03203 21.481 8.34096L17.8559 6.65003C17.982 6.37969 18.2104 6.17052 18.4907 6.06853L19.8583 9.82747ZM21.481 8.34096C21.8033 7.64988 21.8379 6.85905 21.5772 6.14244L17.8183 7.51006C17.7163 7.22973 17.7298 6.92037 17.8559 6.65003L21.481 8.34096ZM21.5772 6.14244C21.3165 5.42583 20.7818 4.84215 20.0907 4.51979L18.3998 8.14481C18.1294 8.01871 17.9203 7.79039 17.8183 7.51006L21.5772 6.14244ZM20.0907 4.51979C19.3996 4.19743 18.6088 4.16281 17.8922 4.42353L19.2598 8.18247C18.9795 8.28446 18.6701 8.27092 18.3998 8.14481L20.0907 4.51979ZM17.8919 4.42364L12.6929 6.31614L14.0611 10.0749L19.2601 8.18236L17.8919 4.42364ZM12.5303 6.38355C12.3657 6.4605 12.1861 6.50026 12.0043 6.5L11.9987 10.5C12.7675 10.5011 13.5271 10.3329 14.2237 10.0074L12.5303 6.38355ZM11.9987 6.5C11.8169 6.50026 11.6373 6.4605 11.4727 6.38355L9.77933 10.0074C10.4759 10.3329 11.2355 10.5011 12.0043 10.5L11.9987 6.5Z" fill="#53B8BB" mask="url(#path-1-inside-1_60_20393)"/>
</svg>
