<svg width="1440" height="365" viewBox="0 0 1440 365" fill="none" xmlns="http://www.w3.org/2000/svg">
<path opacity="0.5" d="M-132 326.492C-132 326.492 -55.4161 236.03 -6.07341 236.03C43.2692 236.03 23.7378 264.813 124.479 264.813C225.22 264.813 270.965 203.649 360.912 203.649C450.86 203.649 565.479 321.352 662.108 287.943C758.738 254.534 752.57 215.471 846.115 215.471C939.661 215.471 968.958 263.785 1047.6 237.058C1126.24 210.331 1168.38 102.908 1240.34 94.1702C1312.3 85.4324 1323.09 123.981 1440.28 123.981" stroke="#055052" stroke-width="4.61945" stroke-linecap="round" stroke-dasharray="13.36 21.59"/>
<path opacity="0.2" d="M-132 361.704C-132 361.704 -55.416 271.242 -6.0734 271.242C43.2692 271.242 23.7378 300.025 124.479 300.025C225.22 300.025 270.965 238.861 360.913 238.861C450.86 238.861 565.479 356.564 662.108 323.155C758.738 289.746 752.57 250.683 846.115 250.683C939.661 250.683 968.958 298.998 1047.6 272.27C1126.24 245.543 1168.38 138.12 1240.34 129.382C1312.3 120.644 1323.09 159.193 1440.28 159.193" stroke="#055052" stroke-width="4.61945" stroke-linecap="round" stroke-dasharray="13.36 21.59"/>
<path d="M-132 285.634C-132 285.634 -26.6328 196.2 22.7098 196.2C72.0524 196.2 54.5769 236.03 155.318 236.03C256.059 236.03 215.454 196.461 325.447 174.613C435.44 152.765 554.685 269.439 651.314 236.03C747.944 202.621 755.14 196.2 848.685 196.2C942.23 196.2 968.958 222.928 1047.6 196.2C1126.24 169.473 1141.14 108.562 1201.79 62.3032C1262.44 16.0445 1323.09 83.1235 1440.28 83.1235" stroke="#055052" stroke-width="4.61945" stroke-linecap="round" stroke-dasharray="13.36 21.59"/>
<path d="M-132 244.776C-132 244.776 -88.3107 224.715 -33.8282 173.324C20.6543 121.933 31.962 196.967 132.703 196.967C233.444 196.967 192.326 195.425 273.535 155.342C354.745 115.259 577.815 236.544 644.119 164.072C710.423 91.6003 784.951 173.324 878.497 173.324C972.042 173.324 968.958 182.07 1047.6 155.342C1126.24 128.615 1133.43 68.9928 1187.4 20.1562C1241.37 -28.6804 1323.09 42.2655 1440.28 42.2655" stroke="#055052" stroke-width="4.61945" stroke-linecap="round" stroke-dasharray="13.36 21.59"/>
</svg>
